<mxfile host="app.diagrams.net" modified="2024-06-26T14:49:58.984Z" agent="Mozilla/5.0 (Windows NT 10.0; Win64; x64) AppleWebKit/537.36 (KHTML, like Gecko) Chrome/126.0.0.0 Safari/537.36" etag="pPu0qADVp-rmkD5E2ydH" version="24.6.3" type="google">
  <diagram name="Page-1" id="U3XyFL_ZbY4wMuc_LF6b">
    <mxGraphModel grid="1" page="1" gridSize="10" guides="1" tooltips="1" connect="1" arrows="1" fold="1" pageScale="1" pageWidth="850" pageHeight="1400" background="#FAFFEB" math="0" shadow="0">
      <root>
        <mxCell id="0" />
        <mxCell id="1" parent="0" />
        <mxCell id="fZQeGDUFqkQw0Y8u2uUr-1" value="User" style="shape=table;startSize=30;container=1;collapsible=1;childLayout=tableLayout;fixedRows=1;rowLines=0;fontStyle=1;align=center;resizeLast=1;html=1;labelBackgroundColor=none;fillColor=#A8DADC;strokeColor=#457B9D;fontColor=#1D3557;" vertex="1" parent="1">
          <mxGeometry x="630" y="430" width="180" height="240" as="geometry">
            <mxRectangle x="1050" y="610" width="70" height="30" as="alternateBounds" />
          </mxGeometry>
        </mxCell>
        <mxCell id="fZQeGDUFqkQw0Y8u2uUr-2" value="" style="shape=tableRow;horizontal=0;startSize=0;swimlaneHead=0;swimlaneBody=0;fillColor=none;collapsible=0;dropTarget=0;points=[[0,0.5],[1,0.5]];portConstraint=eastwest;top=0;left=0;right=0;bottom=1;labelBackgroundColor=none;strokeColor=#457B9D;fontColor=#1D3557;" vertex="1" parent="fZQeGDUFqkQw0Y8u2uUr-1">
          <mxGeometry y="30" width="180" height="30" as="geometry" />
        </mxCell>
        <mxCell id="fZQeGDUFqkQw0Y8u2uUr-3" value="PK" style="shape=partialRectangle;connectable=0;fillColor=none;top=0;left=0;bottom=0;right=0;fontStyle=1;overflow=hidden;whiteSpace=wrap;html=1;labelBackgroundColor=none;strokeColor=#457B9D;fontColor=#1D3557;" vertex="1" parent="fZQeGDUFqkQw0Y8u2uUr-2">
          <mxGeometry width="30" height="30" as="geometry">
            <mxRectangle width="30" height="30" as="alternateBounds" />
          </mxGeometry>
        </mxCell>
        <mxCell id="fZQeGDUFqkQw0Y8u2uUr-4" value="ID" style="shape=partialRectangle;connectable=0;fillColor=none;top=0;left=0;bottom=0;right=0;align=left;spacingLeft=6;fontStyle=5;overflow=hidden;whiteSpace=wrap;html=1;labelBackgroundColor=none;strokeColor=#457B9D;fontColor=#1D3557;" vertex="1" parent="fZQeGDUFqkQw0Y8u2uUr-2">
          <mxGeometry x="30" width="150" height="30" as="geometry">
            <mxRectangle width="150" height="30" as="alternateBounds" />
          </mxGeometry>
        </mxCell>
        <mxCell id="fZQeGDUFqkQw0Y8u2uUr-5" value="" style="shape=tableRow;horizontal=0;startSize=0;swimlaneHead=0;swimlaneBody=0;fillColor=none;collapsible=0;dropTarget=0;points=[[0,0.5],[1,0.5]];portConstraint=eastwest;top=0;left=0;right=0;bottom=0;labelBackgroundColor=none;strokeColor=#457B9D;fontColor=#1D3557;" vertex="1" parent="fZQeGDUFqkQw0Y8u2uUr-1">
          <mxGeometry y="60" width="180" height="30" as="geometry" />
        </mxCell>
        <mxCell id="fZQeGDUFqkQw0Y8u2uUr-6" value="" style="shape=partialRectangle;connectable=0;fillColor=none;top=0;left=0;bottom=0;right=0;editable=1;overflow=hidden;whiteSpace=wrap;html=1;labelBackgroundColor=none;strokeColor=#457B9D;fontColor=#1D3557;" vertex="1" parent="fZQeGDUFqkQw0Y8u2uUr-5">
          <mxGeometry width="30" height="30" as="geometry">
            <mxRectangle width="30" height="30" as="alternateBounds" />
          </mxGeometry>
        </mxCell>
        <mxCell id="fZQeGDUFqkQw0Y8u2uUr-7" value="name" style="shape=partialRectangle;connectable=0;fillColor=none;top=0;left=0;bottom=0;right=0;align=left;spacingLeft=6;overflow=hidden;whiteSpace=wrap;html=1;labelBackgroundColor=none;strokeColor=#457B9D;fontColor=#1D3557;" vertex="1" parent="fZQeGDUFqkQw0Y8u2uUr-5">
          <mxGeometry x="30" width="150" height="30" as="geometry">
            <mxRectangle width="150" height="30" as="alternateBounds" />
          </mxGeometry>
        </mxCell>
        <mxCell id="fZQeGDUFqkQw0Y8u2uUr-8" value="" style="shape=tableRow;horizontal=0;startSize=0;swimlaneHead=0;swimlaneBody=0;fillColor=none;collapsible=0;dropTarget=0;points=[[0,0.5],[1,0.5]];portConstraint=eastwest;top=0;left=0;right=0;bottom=0;labelBackgroundColor=none;strokeColor=#457B9D;fontColor=#1D3557;" vertex="1" parent="fZQeGDUFqkQw0Y8u2uUr-1">
          <mxGeometry y="90" width="180" height="30" as="geometry" />
        </mxCell>
        <mxCell id="fZQeGDUFqkQw0Y8u2uUr-9" value="" style="shape=partialRectangle;connectable=0;fillColor=none;top=0;left=0;bottom=0;right=0;editable=1;overflow=hidden;whiteSpace=wrap;html=1;labelBackgroundColor=none;strokeColor=#457B9D;fontColor=#1D3557;" vertex="1" parent="fZQeGDUFqkQw0Y8u2uUr-8">
          <mxGeometry width="30" height="30" as="geometry">
            <mxRectangle width="30" height="30" as="alternateBounds" />
          </mxGeometry>
        </mxCell>
        <mxCell id="fZQeGDUFqkQw0Y8u2uUr-10" value="password" style="shape=partialRectangle;connectable=0;fillColor=none;top=0;left=0;bottom=0;right=0;align=left;spacingLeft=6;overflow=hidden;whiteSpace=wrap;html=1;labelBackgroundColor=none;strokeColor=#457B9D;fontColor=#1D3557;" vertex="1" parent="fZQeGDUFqkQw0Y8u2uUr-8">
          <mxGeometry x="30" width="150" height="30" as="geometry">
            <mxRectangle width="150" height="30" as="alternateBounds" />
          </mxGeometry>
        </mxCell>
        <mxCell id="fZQeGDUFqkQw0Y8u2uUr-11" value="" style="shape=tableRow;horizontal=0;startSize=0;swimlaneHead=0;swimlaneBody=0;fillColor=none;collapsible=0;dropTarget=0;points=[[0,0.5],[1,0.5]];portConstraint=eastwest;top=0;left=0;right=0;bottom=0;labelBackgroundColor=none;strokeColor=#457B9D;fontColor=#1D3557;" vertex="1" parent="fZQeGDUFqkQw0Y8u2uUr-1">
          <mxGeometry y="120" width="180" height="30" as="geometry" />
        </mxCell>
        <mxCell id="fZQeGDUFqkQw0Y8u2uUr-12" value="" style="shape=partialRectangle;connectable=0;fillColor=none;top=0;left=0;bottom=0;right=0;editable=1;overflow=hidden;whiteSpace=wrap;html=1;labelBackgroundColor=none;strokeColor=#457B9D;fontColor=#1D3557;" vertex="1" parent="fZQeGDUFqkQw0Y8u2uUr-11">
          <mxGeometry width="30" height="30" as="geometry">
            <mxRectangle width="30" height="30" as="alternateBounds" />
          </mxGeometry>
        </mxCell>
        <mxCell id="fZQeGDUFqkQw0Y8u2uUr-13" value="email" style="shape=partialRectangle;connectable=0;fillColor=none;top=0;left=0;bottom=0;right=0;align=left;spacingLeft=6;overflow=hidden;whiteSpace=wrap;html=1;labelBackgroundColor=none;strokeColor=#457B9D;fontColor=#1D3557;" vertex="1" parent="fZQeGDUFqkQw0Y8u2uUr-11">
          <mxGeometry x="30" width="150" height="30" as="geometry">
            <mxRectangle width="150" height="30" as="alternateBounds" />
          </mxGeometry>
        </mxCell>
        <mxCell id="fZQeGDUFqkQw0Y8u2uUr-14" style="shape=tableRow;horizontal=0;startSize=0;swimlaneHead=0;swimlaneBody=0;fillColor=none;collapsible=0;dropTarget=0;points=[[0,0.5],[1,0.5]];portConstraint=eastwest;top=0;left=0;right=0;bottom=0;labelBackgroundColor=none;strokeColor=#457B9D;fontColor=#1D3557;" vertex="1" parent="fZQeGDUFqkQw0Y8u2uUr-1">
          <mxGeometry y="150" width="180" height="30" as="geometry" />
        </mxCell>
        <mxCell id="fZQeGDUFqkQw0Y8u2uUr-15" style="shape=partialRectangle;connectable=0;fillColor=none;top=0;left=0;bottom=0;right=0;editable=1;overflow=hidden;whiteSpace=wrap;html=1;labelBackgroundColor=none;strokeColor=#457B9D;fontColor=#1D3557;" vertex="1" parent="fZQeGDUFqkQw0Y8u2uUr-14">
          <mxGeometry width="30" height="30" as="geometry">
            <mxRectangle width="30" height="30" as="alternateBounds" />
          </mxGeometry>
        </mxCell>
        <mxCell id="fZQeGDUFqkQw0Y8u2uUr-16" value="birthday" style="shape=partialRectangle;connectable=0;fillColor=none;top=0;left=0;bottom=0;right=0;align=left;spacingLeft=6;overflow=hidden;whiteSpace=wrap;html=1;labelBackgroundColor=none;strokeColor=#457B9D;fontColor=#1D3557;" vertex="1" parent="fZQeGDUFqkQw0Y8u2uUr-14">
          <mxGeometry x="30" width="150" height="30" as="geometry">
            <mxRectangle width="150" height="30" as="alternateBounds" />
          </mxGeometry>
        </mxCell>
        <mxCell id="fZQeGDUFqkQw0Y8u2uUr-17" style="shape=tableRow;horizontal=0;startSize=0;swimlaneHead=0;swimlaneBody=0;fillColor=none;collapsible=0;dropTarget=0;points=[[0,0.5],[1,0.5]];portConstraint=eastwest;top=0;left=0;right=0;bottom=0;labelBackgroundColor=none;strokeColor=#457B9D;fontColor=#1D3557;" vertex="1" parent="fZQeGDUFqkQw0Y8u2uUr-1">
          <mxGeometry y="180" width="180" height="30" as="geometry" />
        </mxCell>
        <mxCell id="fZQeGDUFqkQw0Y8u2uUr-18" style="shape=partialRectangle;connectable=0;fillColor=none;top=0;left=0;bottom=0;right=0;editable=1;overflow=hidden;whiteSpace=wrap;html=1;labelBackgroundColor=none;strokeColor=#457B9D;fontColor=#1D3557;" vertex="1" parent="fZQeGDUFqkQw0Y8u2uUr-17">
          <mxGeometry width="30" height="30" as="geometry">
            <mxRectangle width="30" height="30" as="alternateBounds" />
          </mxGeometry>
        </mxCell>
        <mxCell id="fZQeGDUFqkQw0Y8u2uUr-19" value="address" style="shape=partialRectangle;connectable=0;fillColor=none;top=0;left=0;bottom=0;right=0;align=left;spacingLeft=6;overflow=hidden;whiteSpace=wrap;html=1;labelBackgroundColor=none;strokeColor=#457B9D;fontColor=#1D3557;" vertex="1" parent="fZQeGDUFqkQw0Y8u2uUr-17">
          <mxGeometry x="30" width="150" height="30" as="geometry">
            <mxRectangle width="150" height="30" as="alternateBounds" />
          </mxGeometry>
        </mxCell>
        <mxCell id="OFqDbIYOe_2my_a9MHT3-129" style="shape=tableRow;horizontal=0;startSize=0;swimlaneHead=0;swimlaneBody=0;fillColor=none;collapsible=0;dropTarget=0;points=[[0,0.5],[1,0.5]];portConstraint=eastwest;top=0;left=0;right=0;bottom=0;labelBackgroundColor=none;strokeColor=#457B9D;fontColor=#1D3557;" vertex="1" parent="fZQeGDUFqkQw0Y8u2uUr-1">
          <mxGeometry y="210" width="180" height="30" as="geometry" />
        </mxCell>
        <mxCell id="OFqDbIYOe_2my_a9MHT3-130" style="shape=partialRectangle;connectable=0;fillColor=none;top=0;left=0;bottom=0;right=0;editable=1;overflow=hidden;whiteSpace=wrap;html=1;labelBackgroundColor=none;strokeColor=#457B9D;fontColor=#1D3557;" vertex="1" parent="OFqDbIYOe_2my_a9MHT3-129">
          <mxGeometry width="30" height="30" as="geometry">
            <mxRectangle width="30" height="30" as="alternateBounds" />
          </mxGeometry>
        </mxCell>
        <mxCell id="OFqDbIYOe_2my_a9MHT3-131" value="wallet" style="shape=partialRectangle;connectable=0;fillColor=none;top=0;left=0;bottom=0;right=0;align=left;spacingLeft=6;overflow=hidden;whiteSpace=wrap;html=1;labelBackgroundColor=none;strokeColor=#457B9D;fontColor=#1D3557;" vertex="1" parent="OFqDbIYOe_2my_a9MHT3-129">
          <mxGeometry x="30" width="150" height="30" as="geometry">
            <mxRectangle width="150" height="30" as="alternateBounds" />
          </mxGeometry>
        </mxCell>
        <mxCell id="OFqDbIYOe_2my_a9MHT3-4" value="freinds" style="rhombus;whiteSpace=wrap;html=1;labelBackgroundColor=none;fillColor=#A8DADC;strokeColor=#457B9D;fontColor=#1D3557;" vertex="1" parent="1">
          <mxGeometry x="390" y="340" width="80" height="80" as="geometry" />
        </mxCell>
        <mxCell id="OFqDbIYOe_2my_a9MHT3-5" value="" style="endArrow=none;html=1;rounded=0;exitX=0.635;exitY=0.12;exitDx=0;exitDy=0;exitPerimeter=0;labelBackgroundColor=none;strokeColor=#457B9D;fontColor=default;" edge="1" parent="1" source="OFqDbIYOe_2my_a9MHT3-4">
          <mxGeometry width="50" height="50" relative="1" as="geometry">
            <mxPoint x="580" y="530" as="sourcePoint" />
            <mxPoint x="630" y="480" as="targetPoint" />
          </mxGeometry>
        </mxCell>
        <mxCell id="OFqDbIYOe_2my_a9MHT3-7" value="UserID" style="text;html=1;align=center;verticalAlign=middle;whiteSpace=wrap;rounded=0;labelBackgroundColor=none;fontColor=#1D3557;" vertex="1" parent="1">
          <mxGeometry x="510" y="380" width="60" height="30" as="geometry" />
        </mxCell>
        <mxCell id="OFqDbIYOe_2my_a9MHT3-8" value="" style="endArrow=none;html=1;rounded=0;entryX=-0.004;entryY=0.28;entryDx=0;entryDy=0;exitX=1;exitY=1;exitDx=0;exitDy=0;entryPerimeter=0;labelBackgroundColor=none;strokeColor=#457B9D;fontColor=default;" edge="1" parent="1" source="OFqDbIYOe_2my_a9MHT3-4" target="fZQeGDUFqkQw0Y8u2uUr-8">
          <mxGeometry width="50" height="50" relative="1" as="geometry">
            <mxPoint x="450" y="570" as="sourcePoint" />
            <mxPoint x="500" y="520" as="targetPoint" />
          </mxGeometry>
        </mxCell>
        <mxCell id="OFqDbIYOe_2my_a9MHT3-10" value="FreindID" style="text;html=1;align=center;verticalAlign=middle;whiteSpace=wrap;rounded=0;labelBackgroundColor=none;fontColor=#1D3557;" vertex="1" parent="1">
          <mxGeometry x="460" y="445" width="60" height="30" as="geometry" />
        </mxCell>
        <mxCell id="OFqDbIYOe_2my_a9MHT3-11" value="followers" style="rhombus;whiteSpace=wrap;html=1;labelBackgroundColor=none;fillColor=#A8DADC;strokeColor=#457B9D;fontColor=#1D3557;" vertex="1" parent="1">
          <mxGeometry x="390" y="660" width="80" height="80" as="geometry" />
        </mxCell>
        <mxCell id="OFqDbIYOe_2my_a9MHT3-14" value="" style="endArrow=none;html=1;rounded=0;labelBackgroundColor=none;strokeColor=#457B9D;fontColor=default;" edge="1" parent="1" source="OFqDbIYOe_2my_a9MHT3-11">
          <mxGeometry width="50" height="50" relative="1" as="geometry">
            <mxPoint x="440.20000000000005" y="580.4" as="sourcePoint" />
            <mxPoint x="630" y="580" as="targetPoint" />
          </mxGeometry>
        </mxCell>
        <mxCell id="OFqDbIYOe_2my_a9MHT3-15" value="UserID" style="text;html=1;align=center;verticalAlign=middle;whiteSpace=wrap;rounded=0;labelBackgroundColor=none;fontColor=#1D3557;" vertex="1" parent="1">
          <mxGeometry x="450" y="620" width="60" height="25" as="geometry" />
        </mxCell>
        <mxCell id="OFqDbIYOe_2my_a9MHT3-17" value="" style="endArrow=none;html=1;rounded=0;entryX=-0.004;entryY=0.28;entryDx=0;entryDy=0;entryPerimeter=0;labelBackgroundColor=none;strokeColor=#457B9D;fontColor=default;exitX=1;exitY=1;exitDx=0;exitDy=0;" edge="1" parent="1" source="OFqDbIYOe_2my_a9MHT3-11">
          <mxGeometry width="50" height="50" relative="1" as="geometry">
            <mxPoint x="441" y="622" as="sourcePoint" />
            <mxPoint x="629.72" y="619.6" as="targetPoint" />
          </mxGeometry>
        </mxCell>
        <mxCell id="OFqDbIYOe_2my_a9MHT3-18" value="FollowerID" style="text;html=1;align=center;verticalAlign=middle;whiteSpace=wrap;rounded=0;labelBackgroundColor=none;fontColor=#1D3557;" vertex="1" parent="1">
          <mxGeometry x="530" y="680" width="60" height="30" as="geometry" />
        </mxCell>
        <mxCell id="OFqDbIYOe_2my_a9MHT3-44" value="fav_song" style="rhombus;whiteSpace=wrap;html=1;labelBackgroundColor=none;fillColor=#A8DADC;strokeColor=#457B9D;fontColor=#1D3557;" vertex="1" parent="1">
          <mxGeometry x="960" y="410" width="80" height="80" as="geometry" />
        </mxCell>
        <mxCell id="OFqDbIYOe_2my_a9MHT3-47" value="" style="endArrow=none;html=1;rounded=0;strokeColor=#457B9D;fontColor=default;fillColor=#A8DADC;entryX=0;entryY=0.5;entryDx=0;entryDy=0;labelBackgroundColor=none;" edge="1" parent="1" target="OFqDbIYOe_2my_a9MHT3-44">
          <mxGeometry width="50" height="50" relative="1" as="geometry">
            <mxPoint x="810" y="460" as="sourcePoint" />
            <mxPoint x="860" y="410" as="targetPoint" />
          </mxGeometry>
        </mxCell>
        <mxCell id="OFqDbIYOe_2my_a9MHT3-48" value="" style="endArrow=none;html=1;rounded=0;strokeColor=#457B9D;fontColor=default;fillColor=#A8DADC;entryX=-0.025;entryY=0.739;entryDx=0;entryDy=0;entryPerimeter=0;labelBackgroundColor=none;" edge="1" parent="1">
          <mxGeometry width="50" height="50" relative="1" as="geometry">
            <mxPoint x="1040" y="450" as="sourcePoint" />
            <mxPoint x="1175.5" y="452.1700000000001" as="targetPoint" />
          </mxGeometry>
        </mxCell>
        <mxCell id="OFqDbIYOe_2my_a9MHT3-49" value="artist" style="shape=table;startSize=30;container=1;collapsible=1;childLayout=tableLayout;fixedRows=1;rowLines=0;fontStyle=1;align=center;resizeLast=1;html=1;strokeColor=#457B9D;fontColor=#1D3557;fillColor=#A8DADC;labelBackgroundColor=none;" vertex="1" parent="1">
          <mxGeometry x="1170" y="810" width="180" height="90" as="geometry" />
        </mxCell>
        <mxCell id="OFqDbIYOe_2my_a9MHT3-50" value="" style="shape=tableRow;horizontal=0;startSize=0;swimlaneHead=0;swimlaneBody=0;fillColor=none;collapsible=0;dropTarget=0;points=[[0,0.5],[1,0.5]];portConstraint=eastwest;top=0;left=0;right=0;bottom=1;strokeColor=#457B9D;fontColor=#1D3557;labelBackgroundColor=none;" vertex="1" parent="OFqDbIYOe_2my_a9MHT3-49">
          <mxGeometry y="30" width="180" height="30" as="geometry" />
        </mxCell>
        <mxCell id="OFqDbIYOe_2my_a9MHT3-51" value="PK" style="shape=partialRectangle;connectable=0;fillColor=none;top=0;left=0;bottom=0;right=0;fontStyle=1;overflow=hidden;whiteSpace=wrap;html=1;strokeColor=#457B9D;fontColor=#1D3557;labelBackgroundColor=none;" vertex="1" parent="OFqDbIYOe_2my_a9MHT3-50">
          <mxGeometry width="30" height="30" as="geometry">
            <mxRectangle width="30" height="30" as="alternateBounds" />
          </mxGeometry>
        </mxCell>
        <mxCell id="OFqDbIYOe_2my_a9MHT3-52" value="ID" style="shape=partialRectangle;connectable=0;fillColor=none;top=0;left=0;bottom=0;right=0;align=left;spacingLeft=6;fontStyle=5;overflow=hidden;whiteSpace=wrap;html=1;strokeColor=#457B9D;fontColor=#1D3557;labelBackgroundColor=none;" vertex="1" parent="OFqDbIYOe_2my_a9MHT3-50">
          <mxGeometry x="30" width="150" height="30" as="geometry">
            <mxRectangle width="150" height="30" as="alternateBounds" />
          </mxGeometry>
        </mxCell>
        <mxCell id="OFqDbIYOe_2my_a9MHT3-53" value="" style="shape=tableRow;horizontal=0;startSize=0;swimlaneHead=0;swimlaneBody=0;fillColor=none;collapsible=0;dropTarget=0;points=[[0,0.5],[1,0.5]];portConstraint=eastwest;top=0;left=0;right=0;bottom=0;strokeColor=#457B9D;fontColor=#1D3557;labelBackgroundColor=none;" vertex="1" parent="OFqDbIYOe_2my_a9MHT3-49">
          <mxGeometry y="60" width="180" height="30" as="geometry" />
        </mxCell>
        <mxCell id="OFqDbIYOe_2my_a9MHT3-54" value="" style="shape=partialRectangle;connectable=0;fillColor=none;top=0;left=0;bottom=0;right=0;editable=1;overflow=hidden;whiteSpace=wrap;html=1;strokeColor=#457B9D;fontColor=#1D3557;labelBackgroundColor=none;" vertex="1" parent="OFqDbIYOe_2my_a9MHT3-53">
          <mxGeometry width="30" height="30" as="geometry">
            <mxRectangle width="30" height="30" as="alternateBounds" />
          </mxGeometry>
        </mxCell>
        <mxCell id="OFqDbIYOe_2my_a9MHT3-55" value="name" style="shape=partialRectangle;connectable=0;fillColor=none;top=0;left=0;bottom=0;right=0;align=left;spacingLeft=6;overflow=hidden;whiteSpace=wrap;html=1;strokeColor=#457B9D;fontColor=#1D3557;labelBackgroundColor=none;" vertex="1" parent="OFqDbIYOe_2my_a9MHT3-53">
          <mxGeometry x="30" width="150" height="30" as="geometry">
            <mxRectangle width="150" height="30" as="alternateBounds" />
          </mxGeometry>
        </mxCell>
        <mxCell id="OFqDbIYOe_2my_a9MHT3-62" value="Song" style="shape=table;startSize=30;container=1;collapsible=1;childLayout=tableLayout;fixedRows=1;rowLines=0;fontStyle=1;align=center;resizeLast=1;html=1;strokeColor=#457B9D;fontColor=#1D3557;fillColor=#A8DADC;labelBackgroundColor=none;" vertex="1" parent="1">
          <mxGeometry x="1170" y="435" width="180" height="245" as="geometry" />
        </mxCell>
        <mxCell id="OFqDbIYOe_2my_a9MHT3-63" value="" style="shape=tableRow;horizontal=0;startSize=0;swimlaneHead=0;swimlaneBody=0;fillColor=none;collapsible=0;dropTarget=0;points=[[0,0.5],[1,0.5]];portConstraint=eastwest;top=0;left=0;right=0;bottom=1;strokeColor=#457B9D;fontColor=#1D3557;labelBackgroundColor=none;" vertex="1" parent="OFqDbIYOe_2my_a9MHT3-62">
          <mxGeometry y="30" width="180" height="35" as="geometry" />
        </mxCell>
        <mxCell id="OFqDbIYOe_2my_a9MHT3-64" value="PK" style="shape=partialRectangle;connectable=0;fillColor=none;top=0;left=0;bottom=0;right=0;fontStyle=1;overflow=hidden;whiteSpace=wrap;html=1;strokeColor=#457B9D;fontColor=#1D3557;labelBackgroundColor=none;" vertex="1" parent="OFqDbIYOe_2my_a9MHT3-63">
          <mxGeometry width="30" height="35" as="geometry">
            <mxRectangle width="30" height="35" as="alternateBounds" />
          </mxGeometry>
        </mxCell>
        <mxCell id="OFqDbIYOe_2my_a9MHT3-65" value="ID" style="shape=partialRectangle;connectable=0;fillColor=none;top=0;left=0;bottom=0;right=0;align=left;spacingLeft=6;fontStyle=5;overflow=hidden;whiteSpace=wrap;html=1;strokeColor=#457B9D;fontColor=#1D3557;labelBackgroundColor=none;" vertex="1" parent="OFqDbIYOe_2my_a9MHT3-63">
          <mxGeometry x="30" width="150" height="35" as="geometry">
            <mxRectangle width="150" height="35" as="alternateBounds" />
          </mxGeometry>
        </mxCell>
        <mxCell id="OFqDbIYOe_2my_a9MHT3-66" value="" style="shape=tableRow;horizontal=0;startSize=0;swimlaneHead=0;swimlaneBody=0;fillColor=none;collapsible=0;dropTarget=0;points=[[0,0.5],[1,0.5]];portConstraint=eastwest;top=0;left=0;right=0;bottom=0;strokeColor=#457B9D;fontColor=#1D3557;labelBackgroundColor=none;" vertex="1" parent="OFqDbIYOe_2my_a9MHT3-62">
          <mxGeometry y="65" width="180" height="30" as="geometry" />
        </mxCell>
        <mxCell id="OFqDbIYOe_2my_a9MHT3-67" value="" style="shape=partialRectangle;connectable=0;fillColor=none;top=0;left=0;bottom=0;right=0;editable=1;overflow=hidden;whiteSpace=wrap;html=1;strokeColor=#457B9D;fontColor=#1D3557;labelBackgroundColor=none;" vertex="1" parent="OFqDbIYOe_2my_a9MHT3-66">
          <mxGeometry width="30" height="30" as="geometry">
            <mxRectangle width="30" height="30" as="alternateBounds" />
          </mxGeometry>
        </mxCell>
        <mxCell id="OFqDbIYOe_2my_a9MHT3-68" value="name" style="shape=partialRectangle;connectable=0;fillColor=none;top=0;left=0;bottom=0;right=0;align=left;spacingLeft=6;overflow=hidden;whiteSpace=wrap;html=1;strokeColor=#457B9D;fontColor=#1D3557;labelBackgroundColor=none;" vertex="1" parent="OFqDbIYOe_2my_a9MHT3-66">
          <mxGeometry x="30" width="150" height="30" as="geometry">
            <mxRectangle width="150" height="30" as="alternateBounds" />
          </mxGeometry>
        </mxCell>
        <mxCell id="OFqDbIYOe_2my_a9MHT3-69" value="" style="shape=tableRow;horizontal=0;startSize=0;swimlaneHead=0;swimlaneBody=0;fillColor=none;collapsible=0;dropTarget=0;points=[[0,0.5],[1,0.5]];portConstraint=eastwest;top=0;left=0;right=0;bottom=0;strokeColor=#457B9D;fontColor=#1D3557;labelBackgroundColor=none;" vertex="1" parent="OFqDbIYOe_2my_a9MHT3-62">
          <mxGeometry y="95" width="180" height="30" as="geometry" />
        </mxCell>
        <mxCell id="OFqDbIYOe_2my_a9MHT3-70" value="" style="shape=partialRectangle;connectable=0;fillColor=none;top=0;left=0;bottom=0;right=0;editable=1;overflow=hidden;whiteSpace=wrap;html=1;strokeColor=#457B9D;fontColor=#1D3557;labelBackgroundColor=none;" vertex="1" parent="OFqDbIYOe_2my_a9MHT3-69">
          <mxGeometry width="30" height="30" as="geometry">
            <mxRectangle width="30" height="30" as="alternateBounds" />
          </mxGeometry>
        </mxCell>
        <mxCell id="OFqDbIYOe_2my_a9MHT3-71" value="artist_name" style="shape=partialRectangle;connectable=0;fillColor=none;top=0;left=0;bottom=0;right=0;align=left;spacingLeft=6;overflow=hidden;whiteSpace=wrap;html=1;strokeColor=#457B9D;fontColor=#1D3557;labelBackgroundColor=none;" vertex="1" parent="OFqDbIYOe_2my_a9MHT3-69">
          <mxGeometry x="30" width="150" height="30" as="geometry">
            <mxRectangle width="150" height="30" as="alternateBounds" />
          </mxGeometry>
        </mxCell>
        <mxCell id="OFqDbIYOe_2my_a9MHT3-158" style="shape=tableRow;horizontal=0;startSize=0;swimlaneHead=0;swimlaneBody=0;fillColor=none;collapsible=0;dropTarget=0;points=[[0,0.5],[1,0.5]];portConstraint=eastwest;top=0;left=0;right=0;bottom=0;strokeColor=#457B9D;fontColor=#1D3557;labelBackgroundColor=none;" vertex="1" parent="OFqDbIYOe_2my_a9MHT3-62">
          <mxGeometry y="125" width="180" height="30" as="geometry" />
        </mxCell>
        <mxCell id="OFqDbIYOe_2my_a9MHT3-159" style="shape=partialRectangle;connectable=0;fillColor=none;top=0;left=0;bottom=0;right=0;editable=1;overflow=hidden;whiteSpace=wrap;html=1;strokeColor=#457B9D;fontColor=#1D3557;labelBackgroundColor=none;" vertex="1" parent="OFqDbIYOe_2my_a9MHT3-158">
          <mxGeometry width="30" height="30" as="geometry">
            <mxRectangle width="30" height="30" as="alternateBounds" />
          </mxGeometry>
        </mxCell>
        <mxCell id="OFqDbIYOe_2my_a9MHT3-160" value="genre" style="shape=partialRectangle;connectable=0;fillColor=none;top=0;left=0;bottom=0;right=0;align=left;spacingLeft=6;overflow=hidden;whiteSpace=wrap;html=1;strokeColor=#457B9D;fontColor=#1D3557;labelBackgroundColor=none;" vertex="1" parent="OFqDbIYOe_2my_a9MHT3-158">
          <mxGeometry x="30" width="150" height="30" as="geometry">
            <mxRectangle width="150" height="30" as="alternateBounds" />
          </mxGeometry>
        </mxCell>
        <mxCell id="07pzX-aF63wN3rvmMnTV-4" style="shape=tableRow;horizontal=0;startSize=0;swimlaneHead=0;swimlaneBody=0;fillColor=none;collapsible=0;dropTarget=0;points=[[0,0.5],[1,0.5]];portConstraint=eastwest;top=0;left=0;right=0;bottom=0;strokeColor=#457B9D;fontColor=#1D3557;labelBackgroundColor=none;" vertex="1" parent="OFqDbIYOe_2my_a9MHT3-62">
          <mxGeometry y="155" width="180" height="30" as="geometry" />
        </mxCell>
        <mxCell id="07pzX-aF63wN3rvmMnTV-5" style="shape=partialRectangle;connectable=0;fillColor=none;top=0;left=0;bottom=0;right=0;editable=1;overflow=hidden;whiteSpace=wrap;html=1;strokeColor=#457B9D;fontColor=#1D3557;labelBackgroundColor=none;" vertex="1" parent="07pzX-aF63wN3rvmMnTV-4">
          <mxGeometry width="30" height="30" as="geometry">
            <mxRectangle width="30" height="30" as="alternateBounds" />
          </mxGeometry>
        </mxCell>
        <mxCell id="07pzX-aF63wN3rvmMnTV-6" value="lyric" style="shape=partialRectangle;connectable=0;fillColor=none;top=0;left=0;bottom=0;right=0;align=left;spacingLeft=6;overflow=hidden;whiteSpace=wrap;html=1;strokeColor=#457B9D;fontColor=#1D3557;labelBackgroundColor=none;" vertex="1" parent="07pzX-aF63wN3rvmMnTV-4">
          <mxGeometry x="30" width="150" height="30" as="geometry">
            <mxRectangle width="150" height="30" as="alternateBounds" />
          </mxGeometry>
        </mxCell>
        <mxCell id="OFqDbIYOe_2my_a9MHT3-161" style="shape=tableRow;horizontal=0;startSize=0;swimlaneHead=0;swimlaneBody=0;fillColor=none;collapsible=0;dropTarget=0;points=[[0,0.5],[1,0.5]];portConstraint=eastwest;top=0;left=0;right=0;bottom=0;strokeColor=#457B9D;fontColor=#1D3557;labelBackgroundColor=none;" vertex="1" parent="OFqDbIYOe_2my_a9MHT3-62">
          <mxGeometry y="185" width="180" height="30" as="geometry" />
        </mxCell>
        <mxCell id="OFqDbIYOe_2my_a9MHT3-162" style="shape=partialRectangle;connectable=0;fillColor=none;top=0;left=0;bottom=0;right=0;editable=1;overflow=hidden;whiteSpace=wrap;html=1;strokeColor=#457B9D;fontColor=#1D3557;labelBackgroundColor=none;" vertex="1" parent="OFqDbIYOe_2my_a9MHT3-161">
          <mxGeometry width="30" height="30" as="geometry">
            <mxRectangle width="30" height="30" as="alternateBounds" />
          </mxGeometry>
        </mxCell>
        <mxCell id="OFqDbIYOe_2my_a9MHT3-163" value="country" style="shape=partialRectangle;connectable=0;fillColor=none;top=0;left=0;bottom=0;right=0;align=left;spacingLeft=6;overflow=hidden;whiteSpace=wrap;html=1;strokeColor=#457B9D;fontColor=#1D3557;labelBackgroundColor=none;" vertex="1" parent="OFqDbIYOe_2my_a9MHT3-161">
          <mxGeometry x="30" width="150" height="30" as="geometry">
            <mxRectangle width="150" height="30" as="alternateBounds" />
          </mxGeometry>
        </mxCell>
        <mxCell id="OFqDbIYOe_2my_a9MHT3-164" style="shape=tableRow;horizontal=0;startSize=0;swimlaneHead=0;swimlaneBody=0;fillColor=none;collapsible=0;dropTarget=0;points=[[0,0.5],[1,0.5]];portConstraint=eastwest;top=0;left=0;right=0;bottom=0;strokeColor=#457B9D;fontColor=#1D3557;labelBackgroundColor=none;" vertex="1" parent="OFqDbIYOe_2my_a9MHT3-62">
          <mxGeometry y="215" width="180" height="30" as="geometry" />
        </mxCell>
        <mxCell id="OFqDbIYOe_2my_a9MHT3-165" style="shape=partialRectangle;connectable=0;fillColor=none;top=0;left=0;bottom=0;right=0;editable=1;overflow=hidden;whiteSpace=wrap;html=1;strokeColor=#457B9D;fontColor=#1D3557;labelBackgroundColor=none;" vertex="1" parent="OFqDbIYOe_2my_a9MHT3-164">
          <mxGeometry width="30" height="30" as="geometry">
            <mxRectangle width="30" height="30" as="alternateBounds" />
          </mxGeometry>
        </mxCell>
        <mxCell id="OFqDbIYOe_2my_a9MHT3-166" value="ages" style="shape=partialRectangle;connectable=0;fillColor=none;top=0;left=0;bottom=0;right=0;align=left;spacingLeft=6;overflow=hidden;whiteSpace=wrap;html=1;strokeColor=#457B9D;fontColor=#1D3557;labelBackgroundColor=none;" vertex="1" parent="OFqDbIYOe_2my_a9MHT3-164">
          <mxGeometry x="30" width="150" height="30" as="geometry">
            <mxRectangle width="150" height="30" as="alternateBounds" />
          </mxGeometry>
        </mxCell>
        <mxCell id="OFqDbIYOe_2my_a9MHT3-78" value="artist_song" style="rhombus;whiteSpace=wrap;html=1;labelBackgroundColor=none;fillColor=#A8DADC;strokeColor=#457B9D;fontColor=#1D3557;" vertex="1" parent="1">
          <mxGeometry x="1220" y="700" width="80" height="80" as="geometry" />
        </mxCell>
        <mxCell id="OFqDbIYOe_2my_a9MHT3-81" value="Concert" style="shape=table;startSize=30;container=1;collapsible=1;childLayout=tableLayout;fixedRows=1;rowLines=0;fontStyle=1;align=center;resizeLast=1;html=1;strokeColor=#457B9D;fontColor=#1D3557;fillColor=#A8DADC;labelBackgroundColor=none;" vertex="1" parent="1">
          <mxGeometry x="1620" y="740" width="180" height="120" as="geometry" />
        </mxCell>
        <mxCell id="OFqDbIYOe_2my_a9MHT3-82" value="" style="shape=tableRow;horizontal=0;startSize=0;swimlaneHead=0;swimlaneBody=0;fillColor=none;collapsible=0;dropTarget=0;points=[[0,0.5],[1,0.5]];portConstraint=eastwest;top=0;left=0;right=0;bottom=1;strokeColor=#457B9D;fontColor=#1D3557;labelBackgroundColor=none;" vertex="1" parent="OFqDbIYOe_2my_a9MHT3-81">
          <mxGeometry y="30" width="180" height="30" as="geometry" />
        </mxCell>
        <mxCell id="OFqDbIYOe_2my_a9MHT3-83" value="PK" style="shape=partialRectangle;connectable=0;fillColor=none;top=0;left=0;bottom=0;right=0;fontStyle=1;overflow=hidden;whiteSpace=wrap;html=1;strokeColor=#457B9D;fontColor=#1D3557;labelBackgroundColor=none;" vertex="1" parent="OFqDbIYOe_2my_a9MHT3-82">
          <mxGeometry width="30" height="30" as="geometry">
            <mxRectangle width="30" height="30" as="alternateBounds" />
          </mxGeometry>
        </mxCell>
        <mxCell id="OFqDbIYOe_2my_a9MHT3-84" value="ID" style="shape=partialRectangle;connectable=0;fillColor=none;top=0;left=0;bottom=0;right=0;align=left;spacingLeft=6;fontStyle=5;overflow=hidden;whiteSpace=wrap;html=1;strokeColor=#457B9D;fontColor=#1D3557;labelBackgroundColor=none;" vertex="1" parent="OFqDbIYOe_2my_a9MHT3-82">
          <mxGeometry x="30" width="150" height="30" as="geometry">
            <mxRectangle width="150" height="30" as="alternateBounds" />
          </mxGeometry>
        </mxCell>
        <mxCell id="OFqDbIYOe_2my_a9MHT3-85" value="" style="shape=tableRow;horizontal=0;startSize=0;swimlaneHead=0;swimlaneBody=0;fillColor=none;collapsible=0;dropTarget=0;points=[[0,0.5],[1,0.5]];portConstraint=eastwest;top=0;left=0;right=0;bottom=0;strokeColor=#457B9D;fontColor=#1D3557;labelBackgroundColor=none;" vertex="1" parent="OFqDbIYOe_2my_a9MHT3-81">
          <mxGeometry y="60" width="180" height="30" as="geometry" />
        </mxCell>
        <mxCell id="OFqDbIYOe_2my_a9MHT3-86" value="" style="shape=partialRectangle;connectable=0;fillColor=none;top=0;left=0;bottom=0;right=0;editable=1;overflow=hidden;whiteSpace=wrap;html=1;strokeColor=#457B9D;fontColor=#1D3557;labelBackgroundColor=none;" vertex="1" parent="OFqDbIYOe_2my_a9MHT3-85">
          <mxGeometry width="30" height="30" as="geometry">
            <mxRectangle width="30" height="30" as="alternateBounds" />
          </mxGeometry>
        </mxCell>
        <mxCell id="OFqDbIYOe_2my_a9MHT3-87" value="artist_name" style="shape=partialRectangle;connectable=0;fillColor=none;top=0;left=0;bottom=0;right=0;align=left;spacingLeft=6;overflow=hidden;whiteSpace=wrap;html=1;strokeColor=#457B9D;fontColor=#1D3557;labelBackgroundColor=none;" vertex="1" parent="OFqDbIYOe_2my_a9MHT3-85">
          <mxGeometry x="30" width="150" height="30" as="geometry">
            <mxRectangle width="150" height="30" as="alternateBounds" />
          </mxGeometry>
        </mxCell>
        <mxCell id="OFqDbIYOe_2my_a9MHT3-88" style="shape=tableRow;horizontal=0;startSize=0;swimlaneHead=0;swimlaneBody=0;fillColor=none;collapsible=0;dropTarget=0;points=[[0,0.5],[1,0.5]];portConstraint=eastwest;top=0;left=0;right=0;bottom=0;strokeColor=#457B9D;fontColor=#1D3557;labelBackgroundColor=none;" vertex="1" parent="OFqDbIYOe_2my_a9MHT3-81">
          <mxGeometry y="90" width="180" height="30" as="geometry" />
        </mxCell>
        <mxCell id="OFqDbIYOe_2my_a9MHT3-89" style="shape=partialRectangle;connectable=0;fillColor=none;top=0;left=0;bottom=0;right=0;editable=1;overflow=hidden;whiteSpace=wrap;html=1;strokeColor=#457B9D;fontColor=#1D3557;labelBackgroundColor=none;" vertex="1" parent="OFqDbIYOe_2my_a9MHT3-88">
          <mxGeometry width="30" height="30" as="geometry">
            <mxRectangle width="30" height="30" as="alternateBounds" />
          </mxGeometry>
        </mxCell>
        <mxCell id="OFqDbIYOe_2my_a9MHT3-90" value="price" style="shape=partialRectangle;connectable=0;fillColor=none;top=0;left=0;bottom=0;right=0;align=left;spacingLeft=6;overflow=hidden;whiteSpace=wrap;html=1;strokeColor=#457B9D;fontColor=#1D3557;labelBackgroundColor=none;" vertex="1" parent="OFqDbIYOe_2my_a9MHT3-88">
          <mxGeometry x="30" width="150" height="30" as="geometry">
            <mxRectangle width="150" height="30" as="alternateBounds" />
          </mxGeometry>
        </mxCell>
        <mxCell id="OFqDbIYOe_2my_a9MHT3-91" value="artist_concert" style="rhombus;whiteSpace=wrap;html=1;labelBackgroundColor=none;fillColor=#A8DADC;strokeColor=#457B9D;fontColor=#1D3557;" vertex="1" parent="1">
          <mxGeometry x="1460" y="830" width="90" height="80" as="geometry" />
        </mxCell>
        <mxCell id="OFqDbIYOe_2my_a9MHT3-94" value="user_concert" style="rhombus;whiteSpace=wrap;html=1;labelBackgroundColor=none;fillColor=#A8DADC;strokeColor=#457B9D;fontColor=#1D3557;" vertex="1" parent="1">
          <mxGeometry x="690" y="760" width="100" height="80" as="geometry" />
        </mxCell>
        <mxCell id="OFqDbIYOe_2my_a9MHT3-96" value="" style="endArrow=none;html=1;rounded=0;strokeColor=#457B9D;fontColor=default;fillColor=#A8DADC;exitX=0.5;exitY=0;exitDx=0;exitDy=0;labelBackgroundColor=none;" edge="1" parent="1" source="OFqDbIYOe_2my_a9MHT3-94">
          <mxGeometry width="50" height="50" relative="1" as="geometry">
            <mxPoint x="690" y="720" as="sourcePoint" />
            <mxPoint x="740" y="673" as="targetPoint" />
          </mxGeometry>
        </mxCell>
        <mxCell id="OFqDbIYOe_2my_a9MHT3-108" value="album" style="shape=table;startSize=30;container=1;collapsible=1;childLayout=tableLayout;fixedRows=1;rowLines=0;fontStyle=1;align=center;resizeLast=1;html=1;strokeColor=#457B9D;fontColor=#1D3557;fillColor=#A8DADC;labelBackgroundColor=none;shadow=1;" vertex="1" parent="1">
          <mxGeometry x="1670" y="430" width="180" height="60" as="geometry" />
        </mxCell>
        <mxCell id="OFqDbIYOe_2my_a9MHT3-109" value="" style="shape=tableRow;horizontal=0;startSize=0;swimlaneHead=0;swimlaneBody=0;fillColor=none;collapsible=0;dropTarget=0;points=[[0,0.5],[1,0.5]];portConstraint=eastwest;top=0;left=0;right=0;bottom=1;strokeColor=#457B9D;fontColor=#1D3557;labelBackgroundColor=none;" vertex="1" parent="OFqDbIYOe_2my_a9MHT3-108">
          <mxGeometry y="30" width="180" height="30" as="geometry" />
        </mxCell>
        <mxCell id="OFqDbIYOe_2my_a9MHT3-110" value="PK" style="shape=partialRectangle;connectable=0;fillColor=none;top=0;left=0;bottom=0;right=0;fontStyle=1;overflow=hidden;whiteSpace=wrap;html=1;strokeColor=#457B9D;fontColor=#1D3557;labelBackgroundColor=none;" vertex="1" parent="OFqDbIYOe_2my_a9MHT3-109">
          <mxGeometry width="30" height="30" as="geometry">
            <mxRectangle width="30" height="30" as="alternateBounds" />
          </mxGeometry>
        </mxCell>
        <mxCell id="OFqDbIYOe_2my_a9MHT3-111" value="name" style="shape=partialRectangle;connectable=0;fillColor=none;top=0;left=0;bottom=0;right=0;align=left;spacingLeft=6;fontStyle=5;overflow=hidden;whiteSpace=wrap;html=1;strokeColor=#457B9D;fontColor=#1D3557;labelBackgroundColor=none;" vertex="1" parent="OFqDbIYOe_2my_a9MHT3-109">
          <mxGeometry x="30" width="150" height="30" as="geometry">
            <mxRectangle width="150" height="30" as="alternateBounds" />
          </mxGeometry>
        </mxCell>
        <mxCell id="OFqDbIYOe_2my_a9MHT3-115" value="song_album" style="rhombus;whiteSpace=wrap;html=1;labelBackgroundColor=none;fillColor=#A8DADC;strokeColor=#457B9D;fontColor=#1D3557;" vertex="1" parent="1">
          <mxGeometry x="1470" y="420" width="80" height="80" as="geometry" />
        </mxCell>
        <mxCell id="OFqDbIYOe_2my_a9MHT3-116" value="" style="endArrow=none;html=1;rounded=0;strokeColor=#457B9D;fontColor=default;fillColor=#A8DADC;labelBackgroundColor=none;" edge="1" parent="1">
          <mxGeometry width="50" height="50" relative="1" as="geometry">
            <mxPoint x="1350" y="460" as="sourcePoint" />
            <mxPoint x="1470" y="460" as="targetPoint" />
          </mxGeometry>
        </mxCell>
        <mxCell id="OFqDbIYOe_2my_a9MHT3-118" value="artist_album" style="rhombus;whiteSpace=wrap;html=1;labelBackgroundColor=none;fillColor=#A8DADC;strokeColor=#457B9D;fontColor=#1D3557;" vertex="1" parent="1">
          <mxGeometry x="1480" y="530" width="80" height="80" as="geometry" />
        </mxCell>
        <mxCell id="OFqDbIYOe_2my_a9MHT3-124" value="fav_atrist" style="rhombus;whiteSpace=wrap;html=1;labelBackgroundColor=none;fillColor=#A8DADC;strokeColor=#457B9D;fontColor=#1D3557;" vertex="1" parent="1">
          <mxGeometry x="960" y="510" width="80" height="80" as="geometry" />
        </mxCell>
        <mxCell id="OFqDbIYOe_2my_a9MHT3-125" value="" style="endArrow=none;html=1;rounded=0;strokeColor=#457B9D;fontColor=default;fillColor=#A8DADC;entryX=0;entryY=0.5;entryDx=0;entryDy=0;labelBackgroundColor=none;" edge="1" parent="1" target="OFqDbIYOe_2my_a9MHT3-124">
          <mxGeometry width="50" height="50" relative="1" as="geometry">
            <mxPoint x="810" y="550" as="sourcePoint" />
            <mxPoint x="860" y="500" as="targetPoint" />
          </mxGeometry>
        </mxCell>
        <mxCell id="OFqDbIYOe_2my_a9MHT3-128" value="" style="endArrow=none;html=1;rounded=0;strokeColor=#457B9D;fontColor=default;fillColor=#A8DADC;exitX=1;exitY=0.5;exitDx=0;exitDy=0;labelBackgroundColor=none;" edge="1" parent="1" source="OFqDbIYOe_2my_a9MHT3-124">
          <mxGeometry width="50" height="50" relative="1" as="geometry">
            <mxPoint x="1030" y="560" as="sourcePoint" />
            <mxPoint x="1180" y="819" as="targetPoint" />
            <Array as="points">
              <mxPoint x="1040" y="819" />
            </Array>
          </mxGeometry>
        </mxCell>
        <mxCell id="OFqDbIYOe_2my_a9MHT3-132" value="concert_ticket" style="rhombus;whiteSpace=wrap;html=1;labelBackgroundColor=none;fillColor=#A8DADC;strokeColor=#457B9D;fontColor=#1D3557;" vertex="1" parent="1">
          <mxGeometry x="1665" y="960" width="90" height="80" as="geometry" />
        </mxCell>
        <mxCell id="OFqDbIYOe_2my_a9MHT3-135" value="Concert_Ticket" style="shape=table;startSize=30;container=1;collapsible=1;childLayout=tableLayout;fixedRows=1;rowLines=0;fontStyle=1;align=center;resizeLast=1;html=1;strokeColor=#457B9D;fontColor=#1D3557;fillColor=#A8DADC;labelBackgroundColor=none;" vertex="1" parent="1">
          <mxGeometry x="1620" y="1130" width="180" height="90" as="geometry">
            <mxRectangle x="1620" y="1130" width="120" height="30" as="alternateBounds" />
          </mxGeometry>
        </mxCell>
        <mxCell id="OFqDbIYOe_2my_a9MHT3-136" value="" style="shape=tableRow;horizontal=0;startSize=0;swimlaneHead=0;swimlaneBody=0;fillColor=none;collapsible=0;dropTarget=0;points=[[0,0.5],[1,0.5]];portConstraint=eastwest;top=0;left=0;right=0;bottom=1;strokeColor=#457B9D;fontColor=#1D3557;labelBackgroundColor=none;" vertex="1" parent="OFqDbIYOe_2my_a9MHT3-135">
          <mxGeometry y="30" width="180" height="30" as="geometry" />
        </mxCell>
        <mxCell id="OFqDbIYOe_2my_a9MHT3-137" value="PK" style="shape=partialRectangle;connectable=0;fillColor=none;top=0;left=0;bottom=0;right=0;fontStyle=1;overflow=hidden;whiteSpace=wrap;html=1;strokeColor=#457B9D;fontColor=#1D3557;labelBackgroundColor=none;" vertex="1" parent="OFqDbIYOe_2my_a9MHT3-136">
          <mxGeometry width="30" height="30" as="geometry">
            <mxRectangle width="30" height="30" as="alternateBounds" />
          </mxGeometry>
        </mxCell>
        <mxCell id="OFqDbIYOe_2my_a9MHT3-138" value="ID" style="shape=partialRectangle;connectable=0;fillColor=none;top=0;left=0;bottom=0;right=0;align=left;spacingLeft=6;fontStyle=5;overflow=hidden;whiteSpace=wrap;html=1;strokeColor=#457B9D;fontColor=#1D3557;labelBackgroundColor=none;" vertex="1" parent="OFqDbIYOe_2my_a9MHT3-136">
          <mxGeometry x="30" width="150" height="30" as="geometry">
            <mxRectangle width="150" height="30" as="alternateBounds" />
          </mxGeometry>
        </mxCell>
        <mxCell id="OFqDbIYOe_2my_a9MHT3-139" value="" style="shape=tableRow;horizontal=0;startSize=0;swimlaneHead=0;swimlaneBody=0;fillColor=none;collapsible=0;dropTarget=0;points=[[0,0.5],[1,0.5]];portConstraint=eastwest;top=0;left=0;right=0;bottom=0;strokeColor=#457B9D;fontColor=#1D3557;labelBackgroundColor=none;" vertex="1" parent="OFqDbIYOe_2my_a9MHT3-135">
          <mxGeometry y="60" width="180" height="30" as="geometry" />
        </mxCell>
        <mxCell id="OFqDbIYOe_2my_a9MHT3-140" value="" style="shape=partialRectangle;connectable=0;fillColor=none;top=0;left=0;bottom=0;right=0;editable=1;overflow=hidden;whiteSpace=wrap;html=1;strokeColor=#457B9D;fontColor=#1D3557;labelBackgroundColor=none;" vertex="1" parent="OFqDbIYOe_2my_a9MHT3-139">
          <mxGeometry width="30" height="30" as="geometry">
            <mxRectangle width="30" height="30" as="alternateBounds" />
          </mxGeometry>
        </mxCell>
        <mxCell id="OFqDbIYOe_2my_a9MHT3-141" value="isValid" style="shape=partialRectangle;connectable=0;fillColor=none;top=0;left=0;bottom=0;right=0;align=left;spacingLeft=6;overflow=hidden;whiteSpace=wrap;html=1;strokeColor=#457B9D;fontColor=#1D3557;labelBackgroundColor=none;" vertex="1" parent="OFqDbIYOe_2my_a9MHT3-139">
          <mxGeometry x="30" width="150" height="30" as="geometry">
            <mxRectangle width="150" height="30" as="alternateBounds" />
          </mxGeometry>
        </mxCell>
        <mxCell id="OFqDbIYOe_2my_a9MHT3-146" value="concert_ticket_user" style="rhombus;whiteSpace=wrap;html=1;labelBackgroundColor=none;fillColor=#A8DADC;strokeColor=#457B9D;fontColor=#1D3557;" vertex="1" parent="1">
          <mxGeometry x="590" y="1110" width="130" height="80" as="geometry" />
        </mxCell>
        <mxCell id="OFqDbIYOe_2my_a9MHT3-150" value="" style="endArrow=none;html=1;rounded=0;strokeColor=#457B9D;fontColor=default;fillColor=#A8DADC;entryX=-0.03;entryY=0.169;entryDx=0;entryDy=0;entryPerimeter=0;labelBackgroundColor=none;" edge="1" parent="1" target="OFqDbIYOe_2my_a9MHT3-135">
          <mxGeometry width="50" height="50" relative="1" as="geometry">
            <mxPoint x="720" y="1150" as="sourcePoint" />
            <mxPoint x="770" y="1100" as="targetPoint" />
          </mxGeometry>
        </mxCell>
        <mxCell id="OFqDbIYOe_2my_a9MHT3-155" value="" style="endArrow=none;html=1;rounded=0;strokeColor=#457B9D;fontColor=default;fillColor=#A8DADC;entryX=0.403;entryY=1.023;entryDx=0;entryDy=0;entryPerimeter=0;labelBackgroundColor=none;exitX=1;exitY=0.5;exitDx=0;exitDy=0;" edge="1" parent="1" source="OFqDbIYOe_2my_a9MHT3-118" target="OFqDbIYOe_2my_a9MHT3-109">
          <mxGeometry width="50" height="50" relative="1" as="geometry">
            <mxPoint x="1580" y="580" as="sourcePoint" />
            <mxPoint x="1740.3799999999997" y="522.61" as="targetPoint" />
            <Array as="points">
              <mxPoint x="1743" y="570" />
            </Array>
          </mxGeometry>
        </mxCell>
        <mxCell id="OFqDbIYOe_2my_a9MHT3-168" value="" style="endArrow=none;html=1;rounded=0;entryX=-0.017;entryY=-0.103;entryDx=0;entryDy=0;entryPerimeter=0;exitX=1;exitY=0.5;exitDx=0;exitDy=0;labelBackgroundColor=none;strokeColor=#457B9D;fontColor=default;" edge="1" parent="1" source="OFqDbIYOe_2my_a9MHT3-91" target="OFqDbIYOe_2my_a9MHT3-85">
          <mxGeometry width="50" height="50" relative="1" as="geometry">
            <mxPoint x="1520" y="800" as="sourcePoint" />
            <mxPoint x="1570" y="750" as="targetPoint" />
          </mxGeometry>
        </mxCell>
        <mxCell id="OFqDbIYOe_2my_a9MHT3-171" value="" style="endArrow=none;html=1;rounded=0;labelBackgroundColor=none;strokeColor=#457B9D;fontColor=default;" edge="1" parent="1">
          <mxGeometry width="50" height="50" relative="1" as="geometry">
            <mxPoint x="1620" y="860" as="sourcePoint" />
            <mxPoint x="740" y="840" as="targetPoint" />
            <Array as="points">
              <mxPoint x="1620" y="980" />
              <mxPoint x="740" y="980" />
            </Array>
          </mxGeometry>
        </mxCell>
        <mxCell id="OFqDbIYOe_2my_a9MHT3-172" value="playlist" style="shape=table;startSize=30;container=1;collapsible=1;childLayout=tableLayout;fixedRows=1;rowLines=0;fontStyle=1;align=center;resizeLast=1;html=1;strokeColor=#457B9D;fontColor=#1D3557;fillColor=#A8DADC;labelBackgroundColor=none;" vertex="1" parent="1">
          <mxGeometry x="1170" y="150" width="180" height="125" as="geometry" />
        </mxCell>
        <mxCell id="OFqDbIYOe_2my_a9MHT3-173" value="" style="shape=tableRow;horizontal=0;startSize=0;swimlaneHead=0;swimlaneBody=0;fillColor=none;collapsible=0;dropTarget=0;points=[[0,0.5],[1,0.5]];portConstraint=eastwest;top=0;left=0;right=0;bottom=1;strokeColor=#457B9D;fontColor=#1D3557;labelBackgroundColor=none;" vertex="1" parent="OFqDbIYOe_2my_a9MHT3-172">
          <mxGeometry y="30" width="180" height="35" as="geometry" />
        </mxCell>
        <mxCell id="OFqDbIYOe_2my_a9MHT3-174" value="PK" style="shape=partialRectangle;connectable=0;fillColor=none;top=0;left=0;bottom=0;right=0;fontStyle=1;overflow=hidden;whiteSpace=wrap;html=1;strokeColor=#457B9D;fontColor=#1D3557;labelBackgroundColor=none;" vertex="1" parent="OFqDbIYOe_2my_a9MHT3-173">
          <mxGeometry width="30" height="35" as="geometry">
            <mxRectangle width="30" height="35" as="alternateBounds" />
          </mxGeometry>
        </mxCell>
        <mxCell id="OFqDbIYOe_2my_a9MHT3-175" value="ID" style="shape=partialRectangle;connectable=0;fillColor=none;top=0;left=0;bottom=0;right=0;align=left;spacingLeft=6;fontStyle=5;overflow=hidden;whiteSpace=wrap;html=1;strokeColor=#457B9D;fontColor=#1D3557;labelBackgroundColor=none;" vertex="1" parent="OFqDbIYOe_2my_a9MHT3-173">
          <mxGeometry x="30" width="150" height="35" as="geometry">
            <mxRectangle width="150" height="35" as="alternateBounds" />
          </mxGeometry>
        </mxCell>
        <mxCell id="OFqDbIYOe_2my_a9MHT3-176" value="" style="shape=tableRow;horizontal=0;startSize=0;swimlaneHead=0;swimlaneBody=0;fillColor=none;collapsible=0;dropTarget=0;points=[[0,0.5],[1,0.5]];portConstraint=eastwest;top=0;left=0;right=0;bottom=0;strokeColor=#457B9D;fontColor=#1D3557;labelBackgroundColor=none;" vertex="1" parent="OFqDbIYOe_2my_a9MHT3-172">
          <mxGeometry y="65" width="180" height="30" as="geometry" />
        </mxCell>
        <mxCell id="OFqDbIYOe_2my_a9MHT3-177" value="" style="shape=partialRectangle;connectable=0;fillColor=none;top=0;left=0;bottom=0;right=0;editable=1;overflow=hidden;whiteSpace=wrap;html=1;strokeColor=#457B9D;fontColor=#1D3557;labelBackgroundColor=none;" vertex="1" parent="OFqDbIYOe_2my_a9MHT3-176">
          <mxGeometry width="30" height="30" as="geometry">
            <mxRectangle width="30" height="30" as="alternateBounds" />
          </mxGeometry>
        </mxCell>
        <mxCell id="OFqDbIYOe_2my_a9MHT3-178" value="name" style="shape=partialRectangle;connectable=0;fillColor=none;top=0;left=0;bottom=0;right=0;align=left;spacingLeft=6;overflow=hidden;whiteSpace=wrap;html=1;strokeColor=#457B9D;fontColor=#1D3557;labelBackgroundColor=none;" vertex="1" parent="OFqDbIYOe_2my_a9MHT3-176">
          <mxGeometry x="30" width="150" height="30" as="geometry">
            <mxRectangle width="150" height="30" as="alternateBounds" />
          </mxGeometry>
        </mxCell>
        <mxCell id="07pzX-aF63wN3rvmMnTV-1" style="shape=tableRow;horizontal=0;startSize=0;swimlaneHead=0;swimlaneBody=0;fillColor=none;collapsible=0;dropTarget=0;points=[[0,0.5],[1,0.5]];portConstraint=eastwest;top=0;left=0;right=0;bottom=0;strokeColor=#457B9D;fontColor=#1D3557;labelBackgroundColor=none;" vertex="1" parent="OFqDbIYOe_2my_a9MHT3-172">
          <mxGeometry y="95" width="180" height="30" as="geometry" />
        </mxCell>
        <mxCell id="07pzX-aF63wN3rvmMnTV-2" style="shape=partialRectangle;connectable=0;fillColor=none;top=0;left=0;bottom=0;right=0;editable=1;overflow=hidden;whiteSpace=wrap;html=1;strokeColor=#457B9D;fontColor=#1D3557;labelBackgroundColor=none;" vertex="1" parent="07pzX-aF63wN3rvmMnTV-1">
          <mxGeometry width="30" height="30" as="geometry">
            <mxRectangle width="30" height="30" as="alternateBounds" />
          </mxGeometry>
        </mxCell>
        <mxCell id="07pzX-aF63wN3rvmMnTV-3" value="isPrivate" style="shape=partialRectangle;connectable=0;fillColor=none;top=0;left=0;bottom=0;right=0;align=left;spacingLeft=6;overflow=hidden;whiteSpace=wrap;html=1;strokeColor=#457B9D;fontColor=#1D3557;labelBackgroundColor=none;" vertex="1" parent="07pzX-aF63wN3rvmMnTV-1">
          <mxGeometry x="30" width="150" height="30" as="geometry">
            <mxRectangle width="150" height="30" as="alternateBounds" />
          </mxGeometry>
        </mxCell>
        <mxCell id="OFqDbIYOe_2my_a9MHT3-192" value="playlist_song" style="rhombus;whiteSpace=wrap;html=1;labelBackgroundColor=none;fillColor=#A8DADC;strokeColor=#457B9D;fontColor=#1D3557;" vertex="1" parent="1">
          <mxGeometry x="1215" y="320" width="90" height="80" as="geometry" />
        </mxCell>
        <mxCell id="OFqDbIYOe_2my_a9MHT3-197" value="" style="endArrow=none;html=1;rounded=0;strokeColor=#457B9D;fontColor=default;fillColor=#A8DADC;exitX=0.5;exitY=0;exitDx=0;exitDy=0;entryX=-0.019;entryY=0.021;entryDx=0;entryDy=0;entryPerimeter=0;labelBackgroundColor=none;" edge="1" parent="1" source="fZQeGDUFqkQw0Y8u2uUr-1" target="OFqDbIYOe_2my_a9MHT3-173">
          <mxGeometry width="50" height="50" relative="1" as="geometry">
            <mxPoint x="670" y="280" as="sourcePoint" />
            <mxPoint x="720" y="190" as="targetPoint" />
            <Array as="points">
              <mxPoint x="720" y="180" />
            </Array>
          </mxGeometry>
        </mxCell>
        <mxCell id="OFqDbIYOe_2my_a9MHT3-198" value="creates" style="text;html=1;align=center;verticalAlign=middle;whiteSpace=wrap;rounded=0;fontColor=#1D3557;labelBackgroundColor=none;" vertex="1" parent="1">
          <mxGeometry x="860" y="151" width="60" height="30" as="geometry" />
        </mxCell>
        <mxCell id="07pzX-aF63wN3rvmMnTV-7" value="fav_playlist" style="rhombus;whiteSpace=wrap;html=1;labelBackgroundColor=none;fillColor=#A8DADC;strokeColor=#457B9D;fontColor=#1D3557;" vertex="1" parent="1">
          <mxGeometry x="930" y="260" width="80" height="80" as="geometry" />
        </mxCell>
        <mxCell id="07pzX-aF63wN3rvmMnTV-8" value="" style="endArrow=none;html=1;rounded=0;labelBackgroundColor=none;strokeColor=#457B9D;fontColor=default;exitX=0.944;exitY=0;exitDx=0;exitDy=0;exitPerimeter=0;" edge="1" parent="1" source="fZQeGDUFqkQw0Y8u2uUr-1">
          <mxGeometry width="50" height="50" relative="1" as="geometry">
            <mxPoint x="880" y="350" as="sourcePoint" />
            <mxPoint x="930" y="300" as="targetPoint" />
            <Array as="points">
              <mxPoint x="800" y="300" />
            </Array>
          </mxGeometry>
        </mxCell>
        <mxCell id="07pzX-aF63wN3rvmMnTV-9" value="" style="endArrow=none;html=1;rounded=0;strokeColor=#457B9D;fontColor=default;fillColor=#A8DADC;entryX=-0.009;entryY=0.823;entryDx=0;entryDy=0;entryPerimeter=0;labelBackgroundColor=none;" edge="1" parent="1" target="OFqDbIYOe_2my_a9MHT3-176">
          <mxGeometry width="50" height="50" relative="1" as="geometry">
            <mxPoint x="1010" y="300" as="sourcePoint" />
            <mxPoint x="1110" y="260" as="targetPoint" />
            <Array as="points">
              <mxPoint x="1010" y="240" />
            </Array>
          </mxGeometry>
        </mxCell>
        <mxCell id="07pzX-aF63wN3rvmMnTV-11" value="" style="endArrow=none;html=1;rounded=0;strokeColor=#457B9D;fontColor=default;fillColor=#A8DADC;entryX=0.503;entryY=0.996;entryDx=0;entryDy=0;entryPerimeter=0;labelBackgroundColor=none;" edge="1" parent="1" target="07pzX-aF63wN3rvmMnTV-1">
          <mxGeometry width="50" height="50" relative="1" as="geometry">
            <mxPoint x="1260" y="320" as="sourcePoint" />
            <mxPoint x="1310" y="270" as="targetPoint" />
          </mxGeometry>
        </mxCell>
        <mxCell id="07pzX-aF63wN3rvmMnTV-12" value="" style="endArrow=none;html=1;rounded=0;strokeColor=#457B9D;fontColor=default;fillColor=#A8DADC;exitX=0.5;exitY=0;exitDx=0;exitDy=0;labelBackgroundColor=none;" edge="1" parent="1" source="OFqDbIYOe_2my_a9MHT3-62">
          <mxGeometry width="50" height="50" relative="1" as="geometry">
            <mxPoint x="1210" y="450" as="sourcePoint" />
            <mxPoint x="1260" y="400" as="targetPoint" />
          </mxGeometry>
        </mxCell>
        <mxCell id="07pzX-aF63wN3rvmMnTV-13" value="" style="endArrow=classic;html=1;rounded=0;strokeColor=#457B9D;fontColor=default;fillColor=#A8DADC;entryX=0.5;entryY=0;entryDx=0;entryDy=0;exitX=0.5;exitY=1;exitDx=0;exitDy=0;labelBackgroundColor=none;" edge="1" parent="1" source="OFqDbIYOe_2my_a9MHT3-78" target="OFqDbIYOe_2my_a9MHT3-49">
          <mxGeometry width="50" height="50" relative="1" as="geometry">
            <mxPoint x="1160" y="800" as="sourcePoint" />
            <mxPoint x="1210" y="750" as="targetPoint" />
          </mxGeometry>
        </mxCell>
        <mxCell id="07pzX-aF63wN3rvmMnTV-14" value="" style="endArrow=none;html=1;rounded=0;strokeColor=#457B9D;fontColor=default;fillColor=#A8DADC;exitX=0.5;exitY=0;exitDx=0;exitDy=0;entryX=0.5;entryY=1.021;entryDx=0;entryDy=0;entryPerimeter=0;labelBackgroundColor=none;" edge="1" parent="1" source="OFqDbIYOe_2my_a9MHT3-78" target="OFqDbIYOe_2my_a9MHT3-164">
          <mxGeometry width="50" height="50" relative="1" as="geometry">
            <mxPoint x="1220" y="730" as="sourcePoint" />
            <mxPoint x="1255" y="681" as="targetPoint" />
          </mxGeometry>
        </mxCell>
        <mxCell id="07pzX-aF63wN3rvmMnTV-15" value="" style="endArrow=classic;html=1;rounded=0;strokeColor=#457B9D;fontColor=default;fillColor=#A8DADC;entryX=1;entryY=0.25;entryDx=0;entryDy=0;exitX=0;exitY=0.5;exitDx=0;exitDy=0;labelBackgroundColor=none;" edge="1" parent="1" source="OFqDbIYOe_2my_a9MHT3-118" target="OFqDbIYOe_2my_a9MHT3-49">
          <mxGeometry width="50" height="50" relative="1" as="geometry">
            <mxPoint x="1440" y="560" as="sourcePoint" />
            <mxPoint x="1500" y="670" as="targetPoint" />
            <Array as="points">
              <mxPoint x="1440" y="570" />
              <mxPoint x="1440" y="833" />
            </Array>
          </mxGeometry>
        </mxCell>
        <mxCell id="07pzX-aF63wN3rvmMnTV-16" value="" style="endArrow=classic;html=1;rounded=0;strokeColor=#457B9D;fontColor=default;fillColor=#A8DADC;exitX=0;exitY=0.5;exitDx=0;exitDy=0;labelBackgroundColor=none;" edge="1" parent="1" source="OFqDbIYOe_2my_a9MHT3-91">
          <mxGeometry width="50" height="50" relative="1" as="geometry">
            <mxPoint x="1390" y="910" as="sourcePoint" />
            <mxPoint x="1350" y="870" as="targetPoint" />
          </mxGeometry>
        </mxCell>
        <mxCell id="07pzX-aF63wN3rvmMnTV-17" value="" style="endArrow=classic;html=1;rounded=0;strokeColor=#457B9D;fontColor=default;fillColor=#A8DADC;exitX=0.5;exitY=0;exitDx=0;exitDy=0;entryX=0.147;entryY=1.046;entryDx=0;entryDy=0;entryPerimeter=0;labelBackgroundColor=none;" edge="1" parent="1" source="OFqDbIYOe_2my_a9MHT3-146" target="OFqDbIYOe_2my_a9MHT3-129">
          <mxGeometry width="50" height="50" relative="1" as="geometry">
            <mxPoint x="650" y="1100" as="sourcePoint" />
            <mxPoint x="655" y="703" as="targetPoint" />
          </mxGeometry>
        </mxCell>
        <mxCell id="07pzX-aF63wN3rvmMnTV-18" value="" style="endArrow=classic;html=1;rounded=0;strokeColor=#457B9D;fontColor=default;fillColor=#A8DADC;exitX=0.5;exitY=0;exitDx=0;exitDy=0;labelBackgroundColor=none;" edge="1" parent="1" source="OFqDbIYOe_2my_a9MHT3-132">
          <mxGeometry width="50" height="50" relative="1" as="geometry">
            <mxPoint x="1710" y="950" as="sourcePoint" />
            <mxPoint x="1710" y="860" as="targetPoint" />
          </mxGeometry>
        </mxCell>
        <mxCell id="07pzX-aF63wN3rvmMnTV-19" value="" style="endArrow=classic;html=1;rounded=0;strokeColor=#457B9D;fontColor=default;fillColor=#A8DADC;exitX=0.5;exitY=1;exitDx=0;exitDy=0;entryX=0.5;entryY=0;entryDx=0;entryDy=0;labelBackgroundColor=none;" edge="1" parent="1" source="OFqDbIYOe_2my_a9MHT3-132" target="OFqDbIYOe_2my_a9MHT3-135">
          <mxGeometry width="50" height="50" relative="1" as="geometry">
            <mxPoint x="1710" y="1090" as="sourcePoint" />
            <mxPoint x="1760" y="1040" as="targetPoint" />
          </mxGeometry>
        </mxCell>
        <mxCell id="07pzX-aF63wN3rvmMnTV-20" value="" style="endArrow=classic;html=1;rounded=0;strokeColor=#457B9D;fontColor=default;fillColor=#A8DADC;entryX=-0.023;entryY=-0.004;entryDx=0;entryDy=0;entryPerimeter=0;labelBackgroundColor=none;" edge="1" parent="1" target="OFqDbIYOe_2my_a9MHT3-109">
          <mxGeometry width="50" height="50" relative="1" as="geometry">
            <mxPoint x="1550" y="460" as="sourcePoint" />
            <mxPoint x="1600" y="410" as="targetPoint" />
          </mxGeometry>
        </mxCell>
        <mxCell id="VhpyAEORnqDmUM4WeILP-2" value="primum" style="rounded=0;whiteSpace=wrap;html=1;labelBackgroundColor=none;fillColor=#A8DADC;strokeColor=#457B9D;fontColor=#1D3557;" vertex="1" parent="1">
          <mxGeometry x="140" y="410" width="120" height="60" as="geometry" />
        </mxCell>
        <mxCell id="VhpyAEORnqDmUM4WeILP-3" value="free" style="rounded=0;whiteSpace=wrap;html=1;labelBackgroundColor=none;fillColor=#A8DADC;strokeColor=#457B9D;fontColor=#1D3557;" vertex="1" parent="1">
          <mxGeometry x="130" y="595" width="120" height="60" as="geometry" />
        </mxCell>
        <mxCell id="VhpyAEORnqDmUM4WeILP-7" value="" style="endArrow=none;html=1;rounded=0;strokeColor=#457B9D;fontColor=#1D3557;fillColor=#A8DADC;entryX=-0.03;entryY=0.204;entryDx=0;entryDy=0;entryPerimeter=0;" edge="1" parent="1" target="fZQeGDUFqkQw0Y8u2uUr-11">
          <mxGeometry width="50" height="50" relative="1" as="geometry">
            <mxPoint x="380" y="556" as="sourcePoint" />
            <mxPoint x="520" y="520" as="targetPoint" />
          </mxGeometry>
        </mxCell>
        <mxCell id="VhpyAEORnqDmUM4WeILP-8" value="subscription" style="ellipse;whiteSpace=wrap;html=1;aspect=fixed;strokeColor=#457B9D;fontColor=#1D3557;fillColor=#A8DADC;" vertex="1" parent="1">
          <mxGeometry x="340" y="512.5" width="90" height="90" as="geometry" />
        </mxCell>
        <mxCell id="VhpyAEORnqDmUM4WeILP-9" value="" style="endArrow=none;html=1;rounded=0;strokeColor=#457B9D;fontColor=#1D3557;fillColor=#A8DADC;exitX=1;exitY=1;exitDx=0;exitDy=0;entryX=0;entryY=0;entryDx=0;entryDy=0;" edge="1" parent="1" source="VhpyAEORnqDmUM4WeILP-2" target="VhpyAEORnqDmUM4WeILP-8">
          <mxGeometry width="50" height="50" relative="1" as="geometry">
            <mxPoint x="290" y="587.5" as="sourcePoint" />
            <mxPoint x="340" y="537.5" as="targetPoint" />
          </mxGeometry>
        </mxCell>
        <mxCell id="VhpyAEORnqDmUM4WeILP-10" value="P" style="text;html=1;align=center;verticalAlign=middle;whiteSpace=wrap;rounded=0;labelBackgroundColor=none;fontColor=#1D3557;" vertex="1" parent="1">
          <mxGeometry x="300" y="470" width="60" height="30" as="geometry" />
        </mxCell>
        <mxCell id="VhpyAEORnqDmUM4WeILP-11" value="" style="endArrow=none;html=1;rounded=0;strokeColor=#457B9D;fontColor=#1D3557;fillColor=#A8DADC;exitX=1;exitY=0.5;exitDx=0;exitDy=0;entryX=0.067;entryY=0.726;entryDx=0;entryDy=0;entryPerimeter=0;" edge="1" parent="1" source="VhpyAEORnqDmUM4WeILP-3" target="VhpyAEORnqDmUM4WeILP-8">
          <mxGeometry width="50" height="50" relative="1" as="geometry">
            <mxPoint x="300" y="627.5" as="sourcePoint" />
            <mxPoint x="350" y="577.5" as="targetPoint" />
          </mxGeometry>
        </mxCell>
        <mxCell id="VhpyAEORnqDmUM4WeILP-12" value="F" style="text;html=1;align=center;verticalAlign=middle;whiteSpace=wrap;rounded=0;labelBackgroundColor=none;fontColor=#1D3557;" vertex="1" parent="1">
          <mxGeometry x="280" y="610" width="60" height="30" as="geometry" />
        </mxCell>
        <mxCell id="VhpyAEORnqDmUM4WeILP-13" value="like_song" style="rhombus;whiteSpace=wrap;html=1;labelBackgroundColor=none;fillColor=#A8DADC;strokeColor=#457B9D;fontColor=#1D3557;" vertex="1" parent="1">
          <mxGeometry x="40" y="-10" width="90" height="80" as="geometry" />
        </mxCell>
        <mxCell id="VhpyAEORnqDmUM4WeILP-15" value="" style="endArrow=none;html=1;rounded=0;strokeColor=#457B9D;fontColor=#1D3557;fillColor=#A8DADC;exitX=1;exitY=0.5;exitDx=0;exitDy=0;entryX=0.75;entryY=0;entryDx=0;entryDy=0;" edge="1" parent="1" source="VhpyAEORnqDmUM4WeILP-13" target="OFqDbIYOe_2my_a9MHT3-62">
          <mxGeometry width="50" height="50" relative="1" as="geometry">
            <mxPoint x="770" y="80" as="sourcePoint" />
            <mxPoint x="1330" y="420" as="targetPoint" />
            <Array as="points">
              <mxPoint x="1400" y="20" />
              <mxPoint x="1390" y="310" />
            </Array>
          </mxGeometry>
        </mxCell>
        <mxCell id="VhpyAEORnqDmUM4WeILP-22" value="comment_song" style="rhombus;whiteSpace=wrap;html=1;labelBackgroundColor=none;fillColor=#A8DADC;strokeColor=#457B9D;fontColor=#1D3557;" vertex="1" parent="1">
          <mxGeometry x="-70" y="-20" width="100" height="80" as="geometry" />
        </mxCell>
        <mxCell id="VhpyAEORnqDmUM4WeILP-25" value="" style="endArrow=none;html=1;rounded=0;strokeColor=#457B9D;fontColor=#1D3557;fillColor=#A8DADC;entryX=0.5;entryY=1;entryDx=0;entryDy=0;exitX=0;exitY=0.5;exitDx=0;exitDy=0;" edge="1" parent="1" source="VhpyAEORnqDmUM4WeILP-2" target="VhpyAEORnqDmUM4WeILP-22">
          <mxGeometry width="50" height="50" relative="1" as="geometry">
            <mxPoint x="-70" y="150" as="sourcePoint" />
            <mxPoint x="-20" y="100" as="targetPoint" />
            <Array as="points">
              <mxPoint x="-20" y="440" />
            </Array>
          </mxGeometry>
        </mxCell>
        <mxCell id="VhpyAEORnqDmUM4WeILP-26" value="" style="endArrow=none;html=1;rounded=0;strokeColor=#457B9D;fontColor=#1D3557;fillColor=#A8DADC;exitX=0;exitY=0;exitDx=0;exitDy=0;entryX=0.5;entryY=1;entryDx=0;entryDy=0;" edge="1" parent="1" source="VhpyAEORnqDmUM4WeILP-2" target="VhpyAEORnqDmUM4WeILP-13">
          <mxGeometry width="50" height="50" relative="1" as="geometry">
            <mxPoint x="120" y="400" as="sourcePoint" />
            <mxPoint x="120" y="60" as="targetPoint" />
            <Array as="points">
              <mxPoint x="80" y="410" />
            </Array>
          </mxGeometry>
        </mxCell>
        <mxCell id="VhpyAEORnqDmUM4WeILP-27" value="" style="endArrow=none;html=1;rounded=0;strokeColor=#457B9D;fontColor=#1D3557;fillColor=#A8DADC;exitX=0.5;exitY=0;exitDx=0;exitDy=0;entryX=1;entryY=0;entryDx=0;entryDy=0;" edge="1" parent="1" source="VhpyAEORnqDmUM4WeILP-22" target="OFqDbIYOe_2my_a9MHT3-62">
          <mxGeometry width="50" height="50" relative="1" as="geometry">
            <mxPoint x="-20" y="-30" as="sourcePoint" />
            <mxPoint x="1510" y="390" as="targetPoint" />
            <Array as="points">
              <mxPoint x="1450" />
              <mxPoint x="1450" y="210" />
              <mxPoint x="1450" y="410" />
            </Array>
          </mxGeometry>
        </mxCell>
        <mxCell id="VhpyAEORnqDmUM4WeILP-30" value="comment_album" style="rhombus;whiteSpace=wrap;html=1;labelBackgroundColor=none;fillColor=#A8DADC;strokeColor=#457B9D;fontColor=#1D3557;" vertex="1" parent="1">
          <mxGeometry x="-280" y="-20" width="100" height="80" as="geometry" />
        </mxCell>
        <mxCell id="VhpyAEORnqDmUM4WeILP-32" value="like_album" style="rhombus;whiteSpace=wrap;html=1;labelBackgroundColor=none;fillColor=#A8DADC;strokeColor=#457B9D;fontColor=#1D3557;" vertex="1" parent="1">
          <mxGeometry x="-170" y="-20" width="90" height="80" as="geometry" />
        </mxCell>
        <mxCell id="VhpyAEORnqDmUM4WeILP-34" value="" style="endArrow=none;html=1;rounded=0;strokeColor=#457B9D;fontColor=#1D3557;fillColor=#A8DADC;entryX=0.5;entryY=1;entryDx=0;entryDy=0;exitX=0;exitY=1;exitDx=0;exitDy=0;" edge="1" parent="1" source="VhpyAEORnqDmUM4WeILP-2">
          <mxGeometry width="50" height="50" relative="1" as="geometry">
            <mxPoint x="-70" y="440" as="sourcePoint" />
            <mxPoint x="-230" y="60" as="targetPoint" />
            <Array as="points">
              <mxPoint x="-230" y="470" />
            </Array>
          </mxGeometry>
        </mxCell>
        <mxCell id="VhpyAEORnqDmUM4WeILP-35" value="" style="endArrow=none;html=1;rounded=0;strokeColor=#457B9D;fontColor=#1D3557;fillColor=#A8DADC;entryX=0.5;entryY=1;entryDx=0;entryDy=0;exitX=0;exitY=0.75;exitDx=0;exitDy=0;" edge="1" parent="1" source="VhpyAEORnqDmUM4WeILP-2" target="VhpyAEORnqDmUM4WeILP-32">
          <mxGeometry width="50" height="50" relative="1" as="geometry">
            <mxPoint x="40" y="470" as="sourcePoint" />
            <mxPoint x="-120" y="90" as="targetPoint" />
            <Array as="points">
              <mxPoint x="-125" y="450" />
            </Array>
          </mxGeometry>
        </mxCell>
        <mxCell id="VhpyAEORnqDmUM4WeILP-38" value="" style="endArrow=none;html=1;rounded=0;strokeColor=#457B9D;fontColor=#1D3557;fillColor=#A8DADC;exitX=0.5;exitY=0;exitDx=0;exitDy=0;entryX=0.873;entryY=0.027;entryDx=0;entryDy=0;entryPerimeter=0;" edge="1" parent="1" source="VhpyAEORnqDmUM4WeILP-30" target="OFqDbIYOe_2my_a9MHT3-108">
          <mxGeometry width="50" height="50" relative="1" as="geometry">
            <mxPoint x="-240" y="-60" as="sourcePoint" />
            <mxPoint x="1740" y="-130" as="targetPoint" />
            <Array as="points">
              <mxPoint x="-230" y="-130" />
              <mxPoint x="1829" y="-150" />
            </Array>
          </mxGeometry>
        </mxCell>
        <mxCell id="VhpyAEORnqDmUM4WeILP-39" value="" style="endArrow=none;html=1;rounded=0;strokeColor=#457B9D;fontColor=#1D3557;fillColor=#A8DADC;exitX=0.5;exitY=0;exitDx=0;exitDy=0;" edge="1" parent="1" source="VhpyAEORnqDmUM4WeILP-32">
          <mxGeometry width="50" height="50" relative="1" as="geometry">
            <mxPoint x="-100" y="-50" as="sourcePoint" />
            <mxPoint x="1700" y="430" as="targetPoint" />
            <Array as="points">
              <mxPoint x="-120" y="-80" />
              <mxPoint x="790" y="-80" />
              <mxPoint x="1270" y="-80" />
              <mxPoint x="1550" y="-80" />
              <mxPoint x="1690" y="-80" />
              <mxPoint x="1690" />
            </Array>
          </mxGeometry>
        </mxCell>
        <mxCell id="VhpyAEORnqDmUM4WeILP-40" value="comment_playlist" style="rhombus;whiteSpace=wrap;html=1;labelBackgroundColor=none;fillColor=#A8DADC;strokeColor=#457B9D;fontColor=#1D3557;" vertex="1" parent="1">
          <mxGeometry x="130" y="90" width="100" height="80" as="geometry" />
        </mxCell>
        <mxCell id="VhpyAEORnqDmUM4WeILP-42" value="like_playlist" style="rhombus;whiteSpace=wrap;html=1;labelBackgroundColor=none;fillColor=#A8DADC;strokeColor=#457B9D;fontColor=#1D3557;" vertex="1" parent="1">
          <mxGeometry x="260" y="90" width="90" height="80" as="geometry" />
        </mxCell>
        <mxCell id="VhpyAEORnqDmUM4WeILP-43" value="" style="endArrow=none;html=1;rounded=0;strokeColor=#457B9D;fontColor=#1D3557;fillColor=#A8DADC;entryX=0.5;entryY=1;entryDx=0;entryDy=0;exitX=0.319;exitY=0.018;exitDx=0;exitDy=0;exitPerimeter=0;" edge="1" parent="1" source="VhpyAEORnqDmUM4WeILP-2" target="VhpyAEORnqDmUM4WeILP-40">
          <mxGeometry width="50" height="50" relative="1" as="geometry">
            <mxPoint x="180" y="405" as="sourcePoint" />
            <mxPoint x="180" y="190" as="targetPoint" />
          </mxGeometry>
        </mxCell>
        <mxCell id="VhpyAEORnqDmUM4WeILP-44" value="" style="endArrow=none;html=1;rounded=0;strokeColor=#457B9D;fontColor=#1D3557;fillColor=#A8DADC;exitX=0.5;exitY=0;exitDx=0;exitDy=0;entryX=0.351;entryY=0.001;entryDx=0;entryDy=0;entryPerimeter=0;" edge="1" parent="1" source="VhpyAEORnqDmUM4WeILP-40" target="OFqDbIYOe_2my_a9MHT3-172">
          <mxGeometry width="50" height="50" relative="1" as="geometry">
            <mxPoint x="200" y="90" as="sourcePoint" />
            <mxPoint x="1232" y="146" as="targetPoint" />
            <Array as="points">
              <mxPoint x="180" y="50" />
              <mxPoint x="1230" y="40" />
            </Array>
          </mxGeometry>
        </mxCell>
        <mxCell id="VhpyAEORnqDmUM4WeILP-45" value="" style="endArrow=none;html=1;rounded=0;strokeColor=#457B9D;fontColor=#1D3557;fillColor=#A8DADC;exitX=0.5;exitY=0;exitDx=0;exitDy=0;entryX=0.052;entryY=0.006;entryDx=0;entryDy=0;entryPerimeter=0;" edge="1" parent="1" source="VhpyAEORnqDmUM4WeILP-42" target="OFqDbIYOe_2my_a9MHT3-172">
          <mxGeometry width="50" height="50" relative="1" as="geometry">
            <mxPoint x="340" y="80" as="sourcePoint" />
            <mxPoint x="1180" y="147" as="targetPoint" />
            <Array as="points">
              <mxPoint x="305" y="60" />
              <mxPoint x="1180" y="60" />
            </Array>
          </mxGeometry>
        </mxCell>
        <mxCell id="sAcc5Dg420Q0R5ZJAO28-2" value="" style="endArrow=none;html=1;rounded=0;entryX=0.5;entryY=1;entryDx=0;entryDy=0;fillColor=#d5e8d4;strokeColor=#457B9D;exitX=0.81;exitY=-0.042;exitDx=0;exitDy=0;exitPerimeter=0;" edge="1" parent="1" source="VhpyAEORnqDmUM4WeILP-2" target="VhpyAEORnqDmUM4WeILP-42">
          <mxGeometry width="50" height="50" relative="1" as="geometry">
            <mxPoint x="230" y="380" as="sourcePoint" />
            <mxPoint x="310" y="181" as="targetPoint" />
            <Array as="points">
              <mxPoint x="240" y="170" />
            </Array>
          </mxGeometry>
        </mxCell>
      </root>
    </mxGraphModel>
  </diagram>
</mxfile>
